<?xml version="1.0" encoding="UTF-8" standalone="no"?>
<svg width="76px" height="76px" viewBox="0 0 76 76" version="1.1" xmlns="http://www.w3.org/2000/svg" xmlns:xlink="http://www.w3.org/1999/xlink" xmlns:sketch="http://www.bohemiancoding.com/sketch/ns">
    <!-- Generator: Sketch 3.3 (11970) - http://www.bohemiancoding.com/sketch -->
    <title>Icon-76</title>
    <desc>Created with Sketch.</desc>
    <defs>
        <path id="path-1" d="M26.4967667,0 L49.5032333,0 C57.133,0 60.9469333,0 65.0541,1.29833333 C69.5381,2.93043333 73.0695667,6.4619 74.7016667,10.9459 C76,15.0524333 76,18.8676333 76,26.4967667 L76,49.5032333 C76,57.133 76,60.9469333 74.7016667,65.0541 C73.0695667,69.5381 69.5381,73.0695667 65.0541,74.7010333 C60.9469333,76 57.133,76 49.5032333,76 L26.4967667,76 C18.867,76 15.0524333,76 10.9459,74.7010333 C6.4619,73.0695667 2.93043333,69.5381 1.29833333,65.0541 C0,60.9469333 0,57.133 0,49.5032333 L0,26.4967667 C0,18.8676333 0,15.0524333 1.29833333,10.9459 C2.93043333,6.4619 6.4619,2.93043333 10.9459,1.29833333 C15.0524333,0 18.867,0 26.4967667,0 L26.4967667,0"></path>
    </defs>
    <g id="Page-1" stroke="none" stroke-width="1" fill="none" fill-rule="evenodd" sketch:type="MSPage">
        <g id="Icon-76" sketch:type="MSArtboardGroup">
            <g id="icon-copy" sketch:type="MSLayerGroup">
                <mask id="mask-2" sketch:name="Mask" fill="white">
                    <use xlink:href="#path-1"></use>
                </mask>
                <use id="Mask" fill="#222222" sketch:type="MSShapeGroup" xlink:href="#path-1"></use>
                <rect id="Rectangle-97" fill="#D8D8D8" sketch:type="MSShapeGroup" mask="url(#mask-2)" x="15.8828125" y="19.4453125" width="6.0859375" height="1.6328125" rx="2.8203125"></rect>
                <rect id="Rectangle-96" fill="#D8D8D8" sketch:type="MSShapeGroup" mask="url(#mask-2)" x="11.7265625" y="21.375" width="52.546875" height="33.25" rx="2.2265625"></rect>
                <rect id="Rectangle-105" fill="#222222" sketch:type="MSShapeGroup" mask="url(#mask-2)" x="53.4375" y="24.1210938" width="6.6796875" height="4.0078125" rx="0.37109375"></rect>
                <circle id="Oval-37" fill="#222222" sketch:type="MSShapeGroup" mask="url(#mask-2)" cx="38" cy="38" r="10.2421875"></circle>
                <g id="Group" mask="url(#mask-2)" fill="#A4A4A4" sketch:type="MSShapeGroup">
                    <g transform="translate(25.679688, -2.375000)">
                        <rect id="Rectangle-98" x="0.0359496537" y="20.3359375" width="24.5687257" height="2.8203125" rx="0.59375"></rect>
                        <rect id="Rectangle-98-Copy" x="1.09494645" y="16.921875" width="22.8743308" height="2.8203125" rx="0.59375"></rect>
                        <rect id="Rectangle-98-Copy-2" x="1.94214389" y="13.5078125" width="21.3917353" height="2.8203125" rx="0.59375"></rect>
                        <rect id="Rectangle-98-Copy-3" x="2.36574261" y="10.09375" width="20.7563372" height="2.8203125" rx="0.59375"></rect>
                        <rect id="Rectangle-98-Copy-4" x="2.70693746" y="6.71770456" width="20.0739475" height="2.74427837" rx="0.59375"></rect>
                        <rect id="Rectangle-98-Copy-5" x="2.81612995" y="3.30364206" width="19.8555625" height="2.74427837" rx="0.59375"></rect>
                        <rect id="Rectangle-98-Copy-6" x="3.24181994" y="0.0380170637" width="19.0041826" height="2.74427837" rx="0.59375"></rect>
                    </g>
                </g>
                <g id="Group-Copy" mask="url(#mask-2)" fill="#A4A4A4" sketch:type="MSShapeGroup">
                    <g transform="translate(38.000000, 66.796875) rotate(-180.000000) translate(-38.000000, -66.796875) translate(25.679688, 55.218750)">
                        <rect id="Rectangle-98" x="0.0359496537" y="20.3359375" width="24.5687257" height="2.8203125" rx="0.59375"></rect>
                        <rect id="Rectangle-98-Copy" x="1.09494645" y="16.921875" width="22.8743308" height="2.8203125" rx="0.59375"></rect>
                        <rect id="Rectangle-98-Copy-2" x="1.94214389" y="13.5078125" width="21.3917353" height="2.8203125" rx="0.59375"></rect>
                        <rect id="Rectangle-98-Copy-3" x="2.36574261" y="10.09375" width="20.7563372" height="2.8203125" rx="0.59375"></rect>
                        <rect id="Rectangle-98-Copy-4" x="2.70693746" y="6.71770456" width="20.0739475" height="2.74427837" rx="0.59375"></rect>
                        <rect id="Rectangle-98-Copy-5" x="2.81612995" y="3.30364206" width="19.8555625" height="2.74427837" rx="0.59375"></rect>
                        <rect id="Rectangle-98-Copy-6" x="3.24181994" y="0.0380170637" width="19.0041826" height="2.74427837" rx="0.59375"></rect>
                    </g>
                </g>
            </g>
        </g>
    </g>
</svg>